<?xml version="1.0" encoding="UTF-8" standalone="no"?>
<svg
   width="536.98651"
   height="60.252327"
   viewBox="0 0 536.9865 60.252327"
   version="1.1"
   id="svg46"
   sodipodi:docname="banner.svg"
   inkscape:version="1.2 (dc2aedaf03, 2022-05-15)"
   xmlns:inkscape="http://www.inkscape.org/namespaces/inkscape"
   xmlns:sodipodi="http://sodipodi.sourceforge.net/DTD/sodipodi-0.dtd"
   xmlns="http://www.w3.org/2000/svg"
   xmlns:svg="http://www.w3.org/2000/svg">
  <defs
     id="defs50" />
  <sodipodi:namedview
     id="namedview48"
     pagecolor="#505050"
     bordercolor="#eeeeee"
     borderopacity="1"
     inkscape:showpageshadow="0"
     inkscape:pageopacity="0"
     inkscape:pagecheckerboard="0"
     inkscape:deskcolor="#505050"
     showgrid="false"
     inkscape:zoom="1.6988356"
     inkscape:cx="332.28641"
     inkscape:cy="47.091077"
     inkscape:window-width="1920"
     inkscape:window-height="1009"
     inkscape:window-x="760"
     inkscape:window-y="-8"
     inkscape:window-maximized="1"
     inkscape:current-layer="svg46" />
  <g
     id="Group_1791"
     data-name="Group 1791"
     transform="translate(-310.38748,-116.872)"
     style="fill:#ffffff;fill-opacity:1">
    <path
       id="Path_2506"
       data-name="Path 2506"
       d="m 340.394,116.875 a 29.967,29.967 0 0 0 -17.377,5.557 l 0.835,2.268 a 27.572,27.572 0 1 1 -9.587,13.035 c 0.014,-0.041 0.031,-0.081 0.046,-0.122 h 8.519 l 8.743,23.759 h 5.505 v 0 h 0.465 l -0.163,-23.594 8.684,23.6 h 5.972 v -21.019 h 6.416 v -3.228 h -6.889 v 3.228 0 20.376 l -8.686,-23.6 h -5.737 -0.233 l 0.163,23.593 -8.683,-23.6 h -5.5 v -0.006 h -10.432 v 0.006 h -0.441 a 30,30 0 1 0 28.381,-20.256"
       fill="#141834"
       style="fill:#ffffff;fill-opacity:1" />
    <path
       id="Path_2507"
       data-name="Path 2507"
       d="m 488.973,130.2 a 6.821,6.821 0 0 0 -1.8,-1.285 5.891,5.891 0 0 0 -2.385,-0.539 5.7000097,5.7000097 0 0 0 0.021,11.4 5.748,5.748 0 0 0 2.571,-0.643 6.292,6.292 0 0 0 1.6,-1.161 v 1.907 a 7.2,7.2 0 0 1 -4.168,1.348 7.154,7.154 0 1 1 0.083,-14.307 6.518,6.518 0 0 1 4.085,1.368 z"
       transform="translate(-92.561,-5.561)"
       fill="#141834"
       style="fill:#ffffff;fill-opacity:1" />
    <path
       id="Path_2508"
       data-name="Path 2508"
       d="m 509.685,134.077 a 5.62,5.62 0 1 0 5.619,-5.7 5.642,5.642 0 0 0 -5.619,5.7 m -1.576,0 a 7.195,7.195 0 1 1 7.2,7.154 7.06,7.06 0 0 1 -7.2,-7.154"
       transform="translate(-109.417,-5.561)"
       fill="#141834"
       style="fill:#ffffff;fill-opacity:1" />
    <path
       id="Path_2509"
       data-name="Path 2509"
       d="m 548.644,127.434 v 12.379 h 3.815 v 1.451 h -5.35 v -13.83 z"
       transform="translate(-131,-5.843)"
       fill="#141834"
       style="fill:#ffffff;fill-opacity:1" />
    <path
       id="Path_2510"
       data-name="Path 2510"
       d="m 565.729,127.434 v 12.379 h 3.815 v 1.451 h -5.35 v -13.83 z"
       transform="translate(-140.455,-5.843)"
       fill="#141834"
       style="fill:#ffffff;fill-opacity:1" />
    <path
       id="Path_2511"
       data-name="Path 2511"
       d="m 588.454,128.885 h -5.64 v 4.106 h 5.473 v 1.451 h -5.473 v 5.371 h 5.64 v 1.451 h -7.174 v -13.83 h 7.174 z"
       transform="translate(-149.91,-5.843)"
       fill="#141834"
       style="fill:#ffffff;fill-opacity:1" />
    <g
       id="Group_1783"
       data-name="Group 1783"
       transform="translate(440.825,121.362)"
       style="fill:#ffffff;fill-opacity:1">
      <path
         id="Path_2512"
         data-name="Path 2512"
         d="m 610.33,134.035 h 5.764 v 0.332 a 7.62,7.62 0 0 1 -1.327,4.375 6.2,6.2 0 0 1 -5.142,2.488 7.154,7.154 0 1 1 0.042,-14.307 6.888,6.888 0 0 1 4.23,1.368 8.49,8.49 0 0 1 1.6,1.639 l -1.141,1.037 a 7.312,7.312 0 0 0 -1.306,-1.431 5.078,5.078 0 0 0 -3.359,-1.161 5.7000387,5.7000387 0 0 0 -0.042,11.4 4.813,4.813 0 0 0 4.23,-2.322 4.383,4.383 0 0 0 0.56,-1.97 h -4.109 z"
         transform="translate(-602.451,-126.923)"
         fill="#141834"
         style="fill:#ffffff;fill-opacity:1" />
    </g>
    <rect
       id="Rectangle_208"
       data-name="Rectangle 208"
       width="1.534"
       height="13.83"
       transform="translate(457.496,121.59)"
       fill="#141834"
       style="fill:#ffffff;fill-opacity:1"
       x="0"
       y="0" />
    <g
       id="Group_1784"
       data-name="Group 1784"
       transform="translate(462.804,121.591)"
       style="fill:#ffffff;fill-opacity:1">
      <path
         id="Path_2513"
         data-name="Path 2513"
         d="m 653.2,135.914 c 0,1.162 0,2.426 1.1,3.359 a 3.694,3.694 0 0 0 4.562,0 c 1.1,-0.932 1.1,-2.2 1.1,-3.359 v -8.48 h 1.534 v 8.9 a 5.341,5.341 0 0 1 -0.871,3.317 5.313,5.313 0 0 1 -8.086,0 5.344,5.344 0 0 1 -0.871,-3.317 v -8.9 h 1.532 z"
         transform="translate(-651.665,-127.434)"
         fill="#141834"
         style="fill:#ffffff;fill-opacity:1" />
    </g>
    <path
       id="Path_2514"
       data-name="Path 2514"
       d="m 681.054,140.287 2.3,-14.6 5.308,11.674 5.412,-11.695 2.156,14.618 h -1.576 l -1.306,-9.621 -4.707,10.2 -4.641,-10.196 -1.369,9.621 z"
       transform="translate(-205.125,-4.867)"
       fill="#141834"
       style="fill:#ffffff;fill-opacity:1" />
    <path
       id="Path_2515"
       data-name="Path 2515"
       d="m 477.4,173.643 3.649,10.367 4.334,-11.072 4.105,11.072 4.043,-10.367 h 1.7 l -5.802,14.557 -4.064,-11.072 -4.355,11.072 -5.31,-14.557 z"
       transform="translate(-91.483,-31.025)"
       fill="#141834"
       style="fill:#ffffff;fill-opacity:1" />
    <rect
       id="Rectangle_209"
       data-name="Rectangle 209"
       width="1.534"
       height="13.83"
       transform="translate(405.908,142.617)"
       fill="#141834"
       style="fill:#ffffff;fill-opacity:1"
       x="0"
       y="0" />
    <path
       id="Path_2516"
       data-name="Path 2516"
       d="m 537.7,175.968 v 12.379 h -1.534 v -12.379 h -3.359 v -1.451 h 8.252 v 1.451 z"
       transform="translate(-123.086,-31.899)"
       fill="#141834"
       style="fill:#ffffff;fill-opacity:1" />
    <path
       id="Path_2517"
       data-name="Path 2517"
       d="m 563.568,175.968 h -5.64 v 4.105 h 5.472 v 1.451 h -5.474 v 5.376 h 5.64 v 1.451 h -7.174 v -13.83 h 7.174 z"
       transform="translate(-136.138,-31.899)"
       fill="#141834"
       style="fill:#ffffff;fill-opacity:1" />
    <path
       id="Path_2518"
       data-name="Path 2518"
       d="M 580.771,174.517 V 186.9 h 3.815 v 1.451 h -5.35 v -13.83 z"
       transform="translate(-148.779,-31.899)"
       fill="#141834"
       style="fill:#ffffff;fill-opacity:1" />
    <g
       id="Group_1785"
       data-name="Group 1785"
       transform="translate(436.637,142.389)"
       style="fill:#ffffff;fill-opacity:1">
      <path
         id="Path_2519"
         data-name="Path 2519"
         d="m 594.648,181.16 a 5.62,5.62 0 1 0 5.619,-5.7 5.642,5.642 0 0 0 -5.619,5.7 m -1.576,0 a 7.195,7.195 0 1 1 7.2,7.153 7.06,7.06 0 0 1 -7.2,-7.153"
         transform="translate(-593.072,-174.006)"
         fill="#141834"
         style="fill:#ffffff;fill-opacity:1" />
    </g>
    <path
       id="Path_2520"
       data-name="Path 2520"
       d="m 632.072,187.627 v -14.41 l 10.782,11.3 V 173.8 h 1.534 v 14.452 l -10.782,-11.3 v 10.679 z"
       transform="translate(-178.019,-31.18)"
       fill="#141834"
       style="fill:#ffffff;fill-opacity:1" />
    <path
       id="Path_2521"
       data-name="Path 2521"
       d="m 673.126,182.175 -2.322,-5.536 -2.364,5.536 z m 0.6,1.451 h -5.889 l -1.659,3.9 h -1.7 l 6.365,-14.494 6.2,14.494 h -1.7 z"
       transform="translate(-195.953,-31.077)"
       fill="#141834"
       style="fill:#ffffff;fill-opacity:1" />
    <g
       id="Group_1786"
       data-name="Group 1786"
       transform="translate(386.095,164.819)"
       style="fill:#ffffff;fill-opacity:1">
      <path
         id="Path_2522"
         data-name="Path 2522"
         d="m 480.765,229.006 a 2.22,2.22 0 0 0 0.619,1.892 2.083,2.083 0 0 0 2.57,0 2.22,2.22 0 0 0 0.619,-1.892 v -4.777 h 0.865 v 5.01 a 3.014,3.014 0 0 1 -0.491,1.869 2.994,2.994 0 0 1 -4.555,0 3.014,3.014 0 0 1 -0.49,-1.869 v -5.01 h 0.864 z"
         transform="translate(-479.901,-224.229)"
         fill="#141834"
         style="fill:#ffffff;fill-opacity:1" />
      <path
         id="Path_2523"
         data-name="Path 2523"
         d="m 500.009,232.029 a 1.955,1.955 0 0 0 -1.518,-0.724 1.807,1.807 0 0 0 -0.012,3.609 2.067,2.067 0 0 0 1.565,-0.759 v 1 a 2.587,2.587 0 0 1 -1.542,0.5 2.552,2.552 0 1 1 0,-5.1 2.568,2.568 0 0 1 1.507,0.467 z"
         transform="translate(-488.76,-227.731)"
         fill="#141834"
         style="fill:#ffffff;fill-opacity:1" />
    </g>
    <path
       id="Path_2524"
       data-name="Path 2524"
       d="m 508.42,234.895 h 3.364 v 0.771 h -5.046 l 3.5,-4.077 h -2.826 v -0.771 h 4.508 z"
       transform="translate(-108.658,-63.057)"
       fill="#141834"
       style="fill:#ffffff;fill-opacity:1" />
    <g
       id="Group_1787"
       data-name="Group 1787"
       transform="translate(403.851,167.645)"
       style="fill:#ffffff;fill-opacity:1">
      <path
         id="Path_2525"
         data-name="Path 2525"
         d="m 523.432,232.566 a 1.45,1.45 0 0 0 -1.425,-1.261 1.473,1.473 0 0 0 -1.425,1.261 z m 0.829,1.717 a 2.9,2.9 0 0 1 -0.6,0.782 2.353,2.353 0 0 1 -1.612,0.6 2.32,2.32 0 0 1 -2.394,-2.534 2.35,2.35 0 0 1 2.348,-2.57 2.169,2.169 0 0 1 1.834,0.888 3.259,3.259 0 0 1 0.456,1.822 h -3.773 a 1.552,1.552 0 0 0 1.542,1.647 1.475,1.475 0 0 0 0.993,-0.35 1.937,1.937 0 0 0 0.5,-0.666 z"
         transform="translate(-519.66,-230.557)"
         fill="#141834"
         style="fill:#ffffff;fill-opacity:1" />
    </g>
    <rect
       id="Rectangle_210"
       data-name="Rectangle 210"
       width="0.84100002"
       height="8.5150003"
       transform="translate(409.89,164.094)"
       fill="#141834"
       style="fill:#ffffff;fill-opacity:1"
       x="0"
       y="0" />
    <g
       id="Group_1788"
       data-name="Group 1788"
       transform="translate(412.437,164.819)"
       style="fill:#ffffff;fill-opacity:1">
      <path
         id="Path_2526"
         data-name="Path 2526"
         d="m 538.885,230.674 h 0.841 v 0.56 a 1.709,1.709 0 0 1 1.39,-0.677 1.646,1.646 0 0 1 1.39,0.666 2.166,2.166 0 0 1 0.28,1.3 v 3 h -0.841 v -2.979 a 1.428,1.428 0 0 0 -0.222,-0.887 0.952,0.952 0 0 0 -0.794,-0.35 1.059,1.059 0 0 0 -0.853,0.373 2.042,2.042 0 0 0 -0.35,1.308 v 2.535 h -0.841 z"
         transform="translate(-538.885,-227.731)"
         fill="#141834"
         style="fill:#ffffff;fill-opacity:1" />
      <path
         id="Path_2527"
         data-name="Path 2527"
         d="m 552.063,232.655 h -0.841 v -4.847 h 0.841 z m -0.42,-7.276 a 0.6,0.6 0 1 1 -0.6,0.6 0.6,0.6 0 0 1 0.6,-0.6"
         transform="translate(-545.616,-224.865)"
         fill="#141834"
         style="fill:#ffffff;fill-opacity:1" />
      <path
         id="Path_2528"
         data-name="Path 2528"
         d="m 557.325,233.092 a 1.621,1.621 0 0 0 1.589,1.822 1.816,1.816 0 0 0 0,-3.608 1.611,1.611 0 0 0 -1.589,1.787 m 3.154,-2.418 h 0.841 v 4.847 h -0.841 v -0.678 a 2.045,2.045 0 0 1 -1.659,0.818 2.56,2.56 0 0 1 0,-5.1 2,2 0 0 1 1.659,0.806 z"
         transform="translate(-548.612,-227.731)"
         fill="#141834"
         style="fill:#ffffff;fill-opacity:1" />
      <path
         id="Path_2529"
         data-name="Path 2529"
         d="m 578.852,227.814 h 0.712 c 1.028,0 1.647,-0.514 1.647,-1.413 0,-1.238 -1.157,-1.355 -1.717,-1.355 h -0.642 z m 0.549,-3.585 a 2.815,2.815 0 0 1 1.962,0.549 2.232,2.232 0 0 1 -1.752,3.854 h -0.759 v 3.387 h -0.864 v -7.79 z"
         transform="translate(-560.525,-224.229)"
         fill="#141834"
         style="fill:#ffffff;fill-opacity:1" />
      <path
         id="Path_2530"
         data-name="Path 2530"
         d="m 589.368,233.092 a 1.621,1.621 0 0 0 1.588,1.822 1.816,1.816 0 0 0 0,-3.608 1.611,1.611 0 0 0 -1.588,1.787 m 3.153,-2.418 h 0.841 v 4.847 h -0.841 v -0.678 a 2.045,2.045 0 0 1 -1.659,0.818 2.56,2.56 0 0 1 0,-5.1 2,2 0 0 1 1.659,0.806 z"
         transform="translate(-566.344,-227.731)"
         fill="#141834"
         style="fill:#ffffff;fill-opacity:1" />
      <path
         id="Path_2531"
         data-name="Path 2531"
         d="m 606.917,224.651 -1.565,1.576 -0.526,-0.28 1.227,-1.694 z m -3.714,2.534 h 0.841 v 0.56 a 1.71,1.71 0 0 1 1.39,-0.677 1.645,1.645 0 0 1 1.39,0.666 2.163,2.163 0 0 1 0.28,1.3 v 3 h -0.841 v -2.979 a 1.423,1.423 0 0 0 -0.222,-0.887 0.951,0.951 0 0 0 -0.794,-0.35 1.06,1.06 0 0 0 -0.853,0.373 2.045,2.045 0 0 0 -0.35,1.308 v 2.535 H 603.2 Z"
         transform="translate(-574.479,-224.243)"
         fill="#141834"
         style="fill:#ffffff;fill-opacity:1" />
      <path
         id="Path_2532"
         data-name="Path 2532"
         d="m 617.292,231.8 a 0.742,0.742 0 0 0 -0.677,-0.49 0.535,0.535 0 0 0 -0.584,0.548 c 0,0.351 0.233,0.456 0.782,0.689 a 2.945,2.945 0 0 1 1.215,0.748 1.148,1.148 0 0 1 0.257,0.782 1.542,1.542 0 0 1 -1.67,1.588 1.733,1.733 0 0 1 -1.693,-1.238 l 0.724,-0.3 a 1.1,1.1 0 0 0 0.981,0.794 0.752,0.752 0 0 0 0.794,-0.771 c 0,-0.455 -0.327,-0.607 -0.782,-0.805 a 3.169,3.169 0 0 1 -1.18,-0.713 1.05,1.05 0 0 1 -0.222,-0.712 1.3,1.3 0 0 1 1.413,-1.355 1.4,1.4 0 0 1 1.331,0.876 z"
         transform="translate(-580.964,-227.731)"
         fill="#141834"
         style="fill:#ffffff;fill-opacity:1" />
    </g>
    <path
       id="Path_2533"
       data-name="Path 2533"
       d="m 625.484,229.419 v 4.076 h -0.841 v -4.076 h -0.514 v -0.771 h 0.514 V 226.9 h 0.841 v 1.752 h 0.841 v 0.771 z"
       transform="translate(-173.623,-60.886)"
       fill="#141834"
       style="fill:#ffffff;fill-opacity:1" />
    <path
       id="Path_2534"
       data-name="Path 2534"
       d="m 631.261,230.356 1.437,3.294 1.518,-3.667 1.506,3.667 1.448,-3.294 h 0.935 l -2.406,5.186 -1.5,-3.621 -1.495,3.621 -2.383,-5.186 z"
       transform="translate(-177.053,-62.595)"
       fill="#141834"
       style="fill:#ffffff;fill-opacity:1" />
    <g
       id="Group_1789"
       data-name="Group 1789"
       transform="translate(461.755,167.645)"
       style="fill:#ffffff;fill-opacity:1">
      <path
         id="Path_2535"
         data-name="Path 2535"
         d="m 650.181,233.115 a 1.708,1.708 0 1 0 1.705,-1.81 1.68,1.68 0 0 0 -1.705,1.81 m -0.864,0 a 2.57,2.57 0 1 1 2.569,2.546 2.489,2.489 0 0 1 -2.569,-2.546"
         transform="translate(-649.317,-230.557)"
         fill="#141834"
         style="fill:#ffffff;fill-opacity:1" />
    </g>
    <path
       id="Path_2536"
       data-name="Path 2536"
       d="m 663.329,230.356 1.437,3.294 1.518,-3.667 1.506,3.667 1.448,-3.294 h 0.935 l -2.406,5.186 -1.5,-3.621 -1.495,3.621 -2.383,-5.186 z"
       transform="translate(-194.799,-62.595)"
       fill="#141834"
       style="fill:#ffffff;fill-opacity:1" />
    <g
       id="Group_1790"
       data-name="Group 1790"
       transform="translate(476.077,167.645)"
       style="fill:#ffffff;fill-opacity:1">
      <path
         id="Path_2537"
         data-name="Path 2537"
         d="m 682.249,233.092 a 1.621,1.621 0 0 0 1.589,1.822 1.816,1.816 0 0 0 0,-3.608 1.611,1.611 0 0 0 -1.589,1.787 m 3.154,-2.418 h 0.841 v 4.847 H 685.4 v -0.678 a 2.045,2.045 0 0 1 -1.659,0.818 2.56,2.56 0 0 1 0,-5.1 2.005,2.005 0 0 1 1.659,0.806 z"
         transform="translate(-681.385,-230.557)"
         fill="#141834"
         style="fill:#ffffff;fill-opacity:1" />
    </g>
  </g>
  <rect
     style="fill:#ffffff;fill-opacity:1;fill-rule:evenodd;stroke-width:41.4425;stroke-linecap:round;stroke-linejoin:round;stroke-dashoffset:2.06929;paint-order:markers stroke fill"
     id="rect984"
     width="1.0926014"
     height="60.249329"
     x="188.97504"
     y="0.0029984375" />
  <g
     aria-label="Turniej o Puchar Witelona"
     id="text1040"
     style="font-size:32px;line-height:1.05;font-family:Sacramento;-inkscape-font-specification:Sacramento"
     transform="translate(201.59473,14.86335)">
    <path
       d="M -1.3828278e-8,4.2239991 H 5.888 V 24.959999 h 1.76 V 4.2239991 h 5.888 v -1.664 H -1.3828278e-8 Z"
       style="font-weight:300;font-family:Jost;-inkscape-font-specification:'Jost Light';fill:#ffffff"
       id="path665" />
    <path
       d="m 15.616009,19.583999 v -9.344 h -1.664 v 9.536 q 0,2.528 1.216,4.032 1.216,1.472 3.52,1.472 1.664,0 2.88,-0.896 1.216,-0.896 1.824,-2.496 v 3.072 h 1.664 v -14.72 h -1.664 v 8.96 q 0,1.248 -0.576,2.272 -0.544,1.024 -1.536,1.632 -0.96,0.608 -2.208,0.608 -1.792,0 -2.624,-1.088 -0.832,-1.12 -0.832,-3.04 z"
       style="font-weight:300;font-family:Jost;-inkscape-font-specification:'Jost Light';fill:#ffffff"
       id="path667" />
    <path
       d="m 31.775982,10.239999 h -1.664 v 14.72 h 1.664 z m 4.896,1.952 0.928,-1.376 q -0.512,-0.48 -1.152,-0.672 -0.608,-0.2239999 -1.312,-0.2239999 -1.152,0 -2.112,0.7999999 -0.928,0.8 -1.472,2.176 -0.544,1.344 -0.544,3.104 h 0.768 q 0,-1.248 0.288,-2.272 0.288,-1.024 0.928,-1.632 0.672,-0.608 1.76,-0.608 0.576,0 0.992,0.192 0.448,0.16 0.928,0.512 z"
       style="font-weight:300;font-family:Jost;-inkscape-font-specification:'Jost Light';fill:#ffffff"
       id="path669" />
    <path
       d="m 49.855999,15.487999 v 9.472 h 1.664 v -9.664 q 0,-2.464 -1.216,-3.904 -1.216,-1.4719999 -3.52,-1.4719999 -1.632,0 -2.88,0.8959999 -1.216,0.896 -1.824,2.496 v -3.072 h -1.664 v 14.72 h 1.664 v -8.96 q 0,-1.28 0.544,-2.304 0.576,-1.024 1.536,-1.6 0.992,-0.608 2.24,-0.608 1.792,0 2.624,1.056 0.832,1.056 0.832,2.944 z"
       style="font-weight:300;font-family:Jost;-inkscape-font-specification:'Jost Light';fill:#ffffff"
       id="path671" />
    <path
       d="m 56.575972,3.5839991 q 0,0.48 0.352,0.832 0.352,0.352 0.832,0.352 0.512,0 0.832,-0.352 0.352,-0.352 0.352,-0.832 0,-0.512 -0.352,-0.832 -0.32,-0.352 -0.832,-0.352 -0.48,0 -0.832,0.352 -0.352,0.32 -0.352,0.832 z m 0.352,6.6559999 v 14.72 h 1.664 v -14.72 z"
       style="font-weight:300;font-family:Jost;-inkscape-font-specification:'Jost Light';fill:#ffffff"
       id="path673" />
    <path
       d="m 69.535983,25.279999 q 2.208,0 3.84,-0.896 1.664,-0.928 2.912,-2.848 l -1.344,-0.864 q -0.992,1.568 -2.272,2.304 -1.248,0.736 -2.944,0.736 -1.6,0 -2.816,-0.768 -1.184,-0.768 -1.856,-2.176 -0.64,-1.408 -0.64,-3.296 0,-1.856 0.672,-3.2 0.672,-1.376 1.856,-2.112 1.216,-0.768 2.848,-0.768 1.408,0 2.528,0.672 1.12,0.672 1.76,1.856 0.672,1.184 0.672,2.688 0,0.256 -0.096,0.544 -0.064,0.256 -0.128,0.416 l 0.704,-0.992 h -11.456 v 1.44 h 12.704 q 0.032,-0.16 0.032,-0.384 0.032,-0.224 0.032,-0.416 0,-2.144 -0.864,-3.776 -0.832,-1.664 -2.368,-2.592 -1.504,-0.9279999 -3.52,-0.9279999 -2.08,0 -3.68,0.9919999 -1.6,0.96 -2.496,2.688 -0.896,1.728 -0.896,3.968 0,2.24 0.864,4 0.896,1.728 2.432,2.72 1.536,0.992 3.52,0.992 z"
       style="font-weight:300;font-family:Jost;-inkscape-font-specification:'Jost Light';fill:#ffffff"
       id="path675" />
    <path
       d="m 79.93599,3.5839991 q 0,0.48 0.32,0.832 0.352,0.32 0.864,0.32 0.48,0 0.8,-0.32 0.352,-0.352 0.352,-0.832 0,-0.512 -0.352,-0.832 -0.32,-0.32 -0.8,-0.32 -0.512,0 -0.864,0.32 -0.32,0.32 -0.32,0.832 z m -3.712,25.6639999 -0.928,1.376 q 0.288,0.384 0.704,0.672 0.384,0.32 0.928,0.512 0.512,0.192 1.152,0.192 1.344,0 2.208,-0.64 0.896,-0.608 1.312,-1.728 0.416,-1.088 0.416,-2.464 v -16.928 h -1.664 v 16.736 q 0,0.96 -0.192,1.728 -0.192,0.768 -0.672,1.184 -0.48,0.448 -1.312,0.448 -0.672,0 -1.152,-0.32 -0.48,-0.32 -0.8,-0.768 z"
       style="font-weight:300;font-family:Jost;-inkscape-font-specification:'Jost Light';fill:#ffffff"
       id="path677" />
    <path
       d="m 95.74397,17.599999 q 0,2.208 0.992,3.968 0.992,1.728 2.688,2.72 1.728,0.992 3.872,0.992 2.144,0 3.84,-0.992 1.728,-0.992 2.72,-2.72 0.992,-1.76 0.992,-3.968 0,-2.24 -0.992,-3.968 -0.992,-1.728 -2.72,-2.72 -1.696,-0.9919999 -3.84,-0.9919999 -2.144,0 -3.872,0.9919999 -1.696,0.992 -2.688,2.72 -0.992,1.728 -0.992,3.968 z m 1.696,0 q 0,-1.792 0.768,-3.168 0.768,-1.376 2.08,-2.144 1.344,-0.8 3.008,-0.8 1.664,0 2.976,0.8 1.344,0.768 2.112,2.176 0.768,1.376 0.768,3.136 0,1.792 -0.768,3.168 -0.768,1.376 -2.112,2.176 -1.312,0.768 -2.976,0.768 -1.664,0 -3.008,-0.768 -1.312,-0.8 -2.08,-2.176 -0.768,-1.376 -0.768,-3.168 z"
       style="font-weight:300;font-family:Jost;-inkscape-font-specification:'Jost Light';fill:#ffffff"
       id="path679" />
    <path
       d="M 124.38392,2.5599991 V 24.959999 h 1.76 V 2.5599991 Z m 0.992,1.664 h 4.256 q 2.464,0 4,1.28 1.536,1.248 1.536,3.68 0,2.3999999 -1.536,3.6799999 -1.536,1.28 -4,1.28 h -4.256 v 1.664 h 4.256 q 2.112,0 3.744,-0.768 1.664,-0.8 2.624,-2.304 0.96,-1.504 0.96,-3.5519999 0,-2.08 -0.96,-3.552 -0.96,-1.472 -2.624,-2.272 -1.632,-0.8 -3.744,-0.8 h -4.256 z"
       style="font-weight:300;font-family:Jost;-inkscape-font-specification:'Jost Light';fill:#ffffff"
       id="path681" />
    <path
       d="m 141.9199,19.583999 v -9.344 h -1.664 v 9.536 q 0,2.528 1.216,4.032 1.216,1.472 3.52,1.472 1.664,0 2.88,-0.896 1.216,-0.896 1.824,-2.496 v 3.072 h 1.664 v -14.72 h -1.664 v 8.96 q 0,1.248 -0.576,2.272 -0.544,1.024 -1.536,1.632 -0.96,0.608 -2.208,0.608 -1.792,0 -2.624,-1.088 -0.832,-1.12 -0.832,-3.04 z"
       style="font-weight:300;font-family:Jost;-inkscape-font-specification:'Jost Light';fill:#ffffff"
       id="path683" />
    <path
       d="m 156.67188,17.599999 q 0,-1.792 0.768,-3.168 0.768,-1.376 2.08,-2.144 1.344,-0.8 3.008,-0.8 1.184,0 2.208,0.352 1.024,0.352 1.76,0.896 0.768,0.544 1.088,1.152 v -2.08 q -0.672,-0.768 -2.08,-1.312 -1.376,-0.5759999 -2.976,-0.5759999 -2.144,0 -3.84,0.9919999 -1.696,0.992 -2.72,2.72 -0.992,1.728 -0.992,3.968 0,2.208 0.992,3.968 1.024,1.728 2.72,2.72 1.696,0.992 3.84,0.992 1.6,0 2.976,-0.544 1.408,-0.544 2.08,-1.344 v -2.08 q -0.32,0.576 -1.088,1.152 -0.736,0.544 -1.76,0.896 -1.024,0.352 -2.208,0.352 -1.664,0 -3.008,-0.768 -1.312,-0.8 -2.08,-2.176 -0.768,-1.376 -0.768,-3.168 z"
       style="font-weight:300;font-family:Jost;-inkscape-font-specification:'Jost Light';fill:#ffffff"
       id="path685" />
    <path
       d="m 173.50389,-9.1552734e-7 h -1.664 V 24.959999 h 1.664 z M 181.27989,15.487999 v 9.472 h 1.664 v -9.664 q 0,-1.728 -0.544,-2.912 -0.544,-1.216 -1.6,-1.824 -1.056,-0.6399999 -2.592,-0.6399999 -1.536,0 -2.72,0.7999999 -1.184,0.8 -1.888,2.176 -0.672,1.344 -0.672,3.104 h 0.576 q 0,-1.248 0.544,-2.272 0.576,-1.024 1.536,-1.632 0.992,-0.608 2.24,-0.608 1.824,0 2.624,1.056 0.832,1.056 0.832,2.944 z"
       style="font-weight:300;font-family:Jost;-inkscape-font-specification:'Jost Light';fill:#ffffff"
       id="path687" />
    <path
       d="m 188.25586,20.543999 q 0,-1.12 0.512,-1.824 0.512,-0.704 1.408,-1.056 0.928,-0.352 2.176,-0.352 1.344,0 2.56,0.384 1.248,0.352 2.336,1.12 v -1.056 q -0.288,-0.288 -0.96,-0.704 -0.672,-0.416 -1.728,-0.736 -1.024,-0.352 -2.464,-0.352 -2.56,0 -4.064,1.248 -1.472,1.248 -1.472,3.392 0,1.568 0.704,2.592 0.704,1.024 1.856,1.568 1.152,0.512 2.4,0.512 1.28,0 2.528,-0.544 1.248,-0.544 2.08,-1.664 0.832,-1.12 0.832,-2.848 l -0.384,-1.408 q 0,1.632 -0.64,2.752 -0.64,1.12 -1.696,1.696 -1.024,0.576 -2.272,0.576 -1.024,0 -1.888,-0.352 -0.832,-0.384 -1.344,-1.12 -0.48,-0.736 -0.48,-1.824 z m 0.064,-7.616 q 0.416,-0.32 1.024,-0.672 0.64,-0.352 1.504,-0.608 0.864,-0.256 1.952,-0.256 1.056,0 1.792,0.288 0.736,0.288 1.152,0.768 0.448,0.48 0.64,1.088 0.192,0.576 0.192,1.216 v 10.208 h 1.664 v -10.432 q 0,-1.472 -0.64,-2.496 -0.64,-1.024 -1.824,-1.568 -1.184,-0.5439999 -2.848,-0.5439999 -1.952,0 -3.296,0.6079999 -1.312,0.576 -2.144,1.152 z"
       style="font-weight:300;font-family:Jost;-inkscape-font-specification:'Jost Light';fill:#ffffff"
       id="path689" />
    <path
       d="m 204.47984,10.239999 h -1.664 v 14.72 h 1.664 z m 4.896,1.952 0.928,-1.376 q -0.512,-0.48 -1.152,-0.672 -0.608,-0.2239999 -1.312,-0.2239999 -1.152,0 -2.112,0.7999999 -0.928,0.8 -1.472,2.176 -0.544,1.344 -0.544,3.104 h 0.768 q 0,-1.248 0.288,-2.272 0.288,-1.024 0.928,-1.632 0.672,-0.608 1.76,-0.608 0.576,0 0.992,0.192 0.448,0.16 0.928,0.512 z"
       style="font-weight:300;font-family:Jost;-inkscape-font-specification:'Jost Light';fill:#ffffff"
       id="path691" />
    <path
       d="m 242.59183,21.087999 -6.816,-19.3919999 -6.72,19.3919999 -6.464,-18.5279999 h -1.952 l 8.288,23.2639999 6.848,-19.2959999 6.848,19.2959999 8.288,-23.2639999 h -1.952 z"
       style="font-weight:300;font-family:Jost;-inkscape-font-specification:'Jost Light';fill:#ffffff"
       id="path693" />
    <path
       d="m 253.88786,3.5839991 q 0,0.48 0.352,0.832 0.352,0.352 0.832,0.352 0.512,0 0.832,-0.352 0.352,-0.352 0.352,-0.832 0,-0.512 -0.352,-0.832 -0.32,-0.352 -0.832,-0.352 -0.48,0 -0.832,0.352 -0.352,0.32 -0.352,0.832 z m 0.352,6.6559999 v 14.72 h 1.664 v -14.72 z"
       style="font-weight:300;font-family:Jost;-inkscape-font-specification:'Jost Light';fill:#ffffff"
       id="path695" />
    <path
       d="m 259.07187,10.239999 v 1.568 h 6.464 v -1.568 z m 2.4,-5.1199999 V 24.959999 h 1.664 V 5.1199991 Z"
       style="font-weight:300;font-family:Jost;-inkscape-font-specification:'Jost Light';fill:#ffffff"
       id="path697" />
    <path
       d="m 273.88785,25.279999 q 2.208,0 3.84,-0.896 1.664,-0.928 2.912,-2.848 l -1.344,-0.864 q -0.992,1.568 -2.272,2.304 -1.248,0.736 -2.944,0.736 -1.6,0 -2.816,-0.768 -1.184,-0.768 -1.856,-2.176 -0.64,-1.408 -0.64,-3.296 0,-1.856 0.672,-3.2 0.672,-1.376 1.856,-2.112 1.216,-0.768 2.848,-0.768 1.408,0 2.528,0.672 1.12,0.672 1.76,1.856 0.672,1.184 0.672,2.688 0,0.256 -0.096,0.544 -0.064,0.256 -0.128,0.416 l 0.704,-0.992 h -11.456 v 1.44 h 12.704 q 0.032,-0.16 0.032,-0.384 0.032,-0.224 0.032,-0.416 0,-2.144 -0.864,-3.776 -0.832,-1.664 -2.368,-2.592 -1.504,-0.9279999 -3.52,-0.9279999 -2.08,0 -3.68,0.9919999 -1.6,0.96 -2.496,2.688 -0.896,1.728 -0.896,3.968 0,2.24 0.864,4 0.896,1.728 2.432,2.72 1.536,0.992 3.52,0.992 z"
       style="font-weight:300;font-family:Jost;-inkscape-font-specification:'Jost Light';fill:#ffffff"
       id="path699" />
    <path
       d="M 284.67186,-9.1552734e-7 V 24.959999 h 1.664 V -9.1552734e-7 Z"
       style="font-weight:300;font-family:Jost;-inkscape-font-specification:'Jost Light';fill:#ffffff"
       id="path701" />
    <path
       d="m 290.11183,17.599999 q 0,2.208 0.992,3.968 0.992,1.728 2.688,2.72 1.728,0.992 3.872,0.992 2.144,0 3.84,-0.992 1.728,-0.992 2.72,-2.72 0.992,-1.76 0.992,-3.968 0,-2.24 -0.992,-3.968 -0.992,-1.728 -2.72,-2.72 -1.696,-0.9919999 -3.84,-0.9919999 -2.144,0 -3.872,0.9919999 -1.696,0.992 -2.688,2.72 -0.992,1.728 -0.992,3.968 z m 1.696,0 q 0,-1.792 0.768,-3.168 0.768,-1.376 2.08,-2.144 1.344,-0.8 3.008,-0.8 1.664,0 2.976,0.8 1.344,0.768 2.112,2.176 0.768,1.376 0.768,3.136 0,1.792 -0.768,3.168 -0.768,1.376 -2.112,2.176 -1.312,0.768 -2.976,0.768 -1.664,0 -3.008,-0.768 -1.312,-0.8 -2.08,-2.176 -0.768,-1.376 -0.768,-3.168 z"
       style="font-weight:300;font-family:Jost;-inkscape-font-specification:'Jost Light';fill:#ffffff"
       id="path703" />
    <path
       d="m 318.4318,15.487999 v 9.472 h 1.664 v -9.664 q 0,-2.464 -1.216,-3.904 -1.216,-1.4719999 -3.52,-1.4719999 -1.632,0 -2.88,0.8959999 -1.216,0.896 -1.824,2.496 v -3.072 h -1.664 v 14.72 h 1.664 v -8.96 q 0,-1.28 0.544,-2.304 0.576,-1.024 1.536,-1.6 0.992,-0.608 2.24,-0.608 1.792,0 2.624,1.056 0.832,1.056 0.832,2.944 z"
       style="font-weight:300;font-family:Jost;-inkscape-font-specification:'Jost Light';fill:#ffffff"
       id="path705" />
    <path
       d="m 325.40778,20.543999 q 0,-1.12 0.512,-1.824 0.512,-0.704 1.408,-1.056 0.928,-0.352 2.176,-0.352 1.344,0 2.56,0.384 1.248,0.352 2.336,1.12 v -1.056 q -0.288,-0.288 -0.96,-0.704 -0.672,-0.416 -1.728,-0.736 -1.024,-0.352 -2.464,-0.352 -2.56,0 -4.064,1.248 -1.472,1.248 -1.472,3.392 0,1.568 0.704,2.592 0.704,1.024 1.856,1.568 1.152,0.512 2.4,0.512 1.28,0 2.528,-0.544 1.248,-0.544 2.08,-1.664 0.832,-1.12 0.832,-2.848 l -0.384,-1.408 q 0,1.632 -0.64,2.752 -0.64,1.12 -1.696,1.696 -1.024,0.576 -2.272,0.576 -1.024,0 -1.888,-0.352 -0.832,-0.384 -1.344,-1.12 -0.48,-0.736 -0.48,-1.824 z m 0.064,-7.616 q 0.416,-0.32 1.024,-0.672 0.64,-0.352 1.504,-0.608 0.864,-0.256 1.952,-0.256 1.056,0 1.792,0.288 0.736,0.288 1.152,0.768 0.448,0.48 0.64,1.088 0.192,0.576 0.192,1.216 v 10.208 h 1.664 v -10.432 q 0,-1.472 -0.64,-2.496 -0.64,-1.024 -1.824,-1.568 -1.184,-0.5439999 -2.848,-0.5439999 -1.952,0 -3.296,0.6079999 -1.312,0.576 -2.144,1.152 z"
       style="font-weight:300;font-family:Jost;-inkscape-font-specification:'Jost Light';fill:#ffffff"
       id="path707" />
  </g>
</svg>
