<?xml version="1.0" encoding="UTF-8" standalone="no"?>
<svg
   width="180.712"
   height="60"
   viewBox="0 0 180.712 60"
   version="1.1"
   id="svg46"
   sodipodi:docname="main_logo.svg"
   inkscape:version="1.2 (dc2aedaf03, 2022-05-15)"
   xmlns:inkscape="http://www.inkscape.org/namespaces/inkscape"
   xmlns:sodipodi="http://sodipodi.sourceforge.net/DTD/sodipodi-0.dtd"
   xmlns="http://www.w3.org/2000/svg"
   xmlns:svg="http://www.w3.org/2000/svg">
  <defs
     id="defs50" />
  <sodipodi:namedview
     id="namedview48"
     pagecolor="#505050"
     bordercolor="#eeeeee"
     borderopacity="1"
     inkscape:showpageshadow="0"
     inkscape:pageopacity="0"
     inkscape:pagecheckerboard="0"
     inkscape:deskcolor="#505050"
     showgrid="false"
     inkscape:zoom="2.4025164"
     inkscape:cx="305.92923"
     inkscape:cy="41.206794"
     inkscape:window-width="1920"
     inkscape:window-height="1009"
     inkscape:window-x="760"
     inkscape:window-y="-8"
     inkscape:window-maximized="1"
     inkscape:current-layer="svg46" />
  <g
     id="Group_1791"
     data-name="Group 1791"
     transform="translate(-310.394 -116.875)"
     style="fill:#ffffff;fill-opacity:1">
    <path
       id="Path_2506"
       data-name="Path 2506"
       d="M340.394,116.875a29.967,29.967,0,0,0-17.377,5.557l.835,2.268a27.572,27.572,0,1,1-9.587,13.035c.014-.041.031-.081.046-.122h8.519l8.743,23.759h5.505v0l.465,0-.163-23.594,8.684,23.6h5.972V140.359h6.416v-3.228h-6.889v3.228h0v20.376l-8.686-23.6h-5.737l-.233,0,.163,23.593-8.683-23.6h-5.5v-.006H312.455v.006h-.441a30,30,0,1,0,28.381-20.256"
       fill="#141834"
       style="fill:#ffffff;fill-opacity:1" />
    <path
       id="Path_2507"
       data-name="Path 2507"
       d="M488.973,130.2a6.821,6.821,0,0,0-1.8-1.285,5.891,5.891,0,0,0-2.385-.539,5.7,5.7,0,0,0,.021,11.4,5.748,5.748,0,0,0,2.571-.643,6.292,6.292,0,0,0,1.6-1.161v1.907a7.2,7.2,0,0,1-4.168,1.348,7.154,7.154,0,1,1,.083-14.307,6.518,6.518,0,0,1,4.085,1.368Z"
       transform="translate(-92.561 -5.561)"
       fill="#141834"
       style="fill:#ffffff;fill-opacity:1" />
    <path
       id="Path_2508"
       data-name="Path 2508"
       d="M509.685,134.077a5.62,5.62,0,1,0,5.619-5.7,5.642,5.642,0,0,0-5.619,5.7m-1.576,0a7.195,7.195,0,1,1,7.2,7.154,7.06,7.06,0,0,1-7.2-7.154"
       transform="translate(-109.417 -5.561)"
       fill="#141834"
       style="fill:#ffffff;fill-opacity:1" />
    <path
       id="Path_2509"
       data-name="Path 2509"
       d="M548.644,127.434v12.379h3.815v1.451h-5.35v-13.83Z"
       transform="translate(-131 -5.843)"
       fill="#141834"
       style="fill:#ffffff;fill-opacity:1" />
    <path
       id="Path_2510"
       data-name="Path 2510"
       d="M565.729,127.434v12.379h3.815v1.451h-5.35v-13.83Z"
       transform="translate(-140.455 -5.843)"
       fill="#141834"
       style="fill:#ffffff;fill-opacity:1" />
    <path
       id="Path_2511"
       data-name="Path 2511"
       d="M588.454,128.885h-5.64v4.106h5.473v1.451h-5.473v5.371h5.64v1.451H581.28v-13.83h7.174Z"
       transform="translate(-149.91 -5.843)"
       fill="#141834"
       style="fill:#ffffff;fill-opacity:1" />
    <g
       id="Group_1783"
       data-name="Group 1783"
       transform="translate(440.825 121.362)"
       style="fill:#ffffff;fill-opacity:1">
      <path
         id="Path_2512"
         data-name="Path 2512"
         d="M610.33,134.035h5.764v.332a7.62,7.62,0,0,1-1.327,4.375,6.2,6.2,0,0,1-5.142,2.488,7.154,7.154,0,1,1,.042-14.307,6.888,6.888,0,0,1,4.23,1.368,8.49,8.49,0,0,1,1.6,1.639l-1.141,1.037a7.312,7.312,0,0,0-1.306-1.431,5.078,5.078,0,0,0-3.359-1.161,5.7,5.7,0,0,0-.042,11.4,4.813,4.813,0,0,0,4.23-2.322,4.383,4.383,0,0,0,.56-1.97H610.33Z"
         transform="translate(-602.451 -126.923)"
         fill="#141834"
         style="fill:#ffffff;fill-opacity:1" />
    </g>
    <rect
       id="Rectangle_208"
       data-name="Rectangle 208"
       width="1.534"
       height="13.83"
       transform="translate(457.496 121.59)"
       fill="#141834"
       style="fill:#ffffff;fill-opacity:1" />
    <g
       id="Group_1784"
       data-name="Group 1784"
       transform="translate(462.804 121.591)"
       style="fill:#ffffff;fill-opacity:1">
      <path
         id="Path_2513"
         data-name="Path 2513"
         d="M653.2,135.914c0,1.162,0,2.426,1.1,3.359a3.694,3.694,0,0,0,4.562,0c1.1-.932,1.1-2.2,1.1-3.359v-8.48h1.534v8.9a5.341,5.341,0,0,1-.871,3.317,5.313,5.313,0,0,1-8.086,0,5.344,5.344,0,0,1-.871-3.317v-8.9H653.2Z"
         transform="translate(-651.665 -127.434)"
         fill="#141834"
         style="fill:#ffffff;fill-opacity:1" />
    </g>
    <path
       id="Path_2514"
       data-name="Path 2514"
       d="M681.054,140.287l2.3-14.6,5.308,11.674,5.412-11.695,2.156,14.618h-1.576l-1.306-9.621-4.707,10.2L684,130.667l-1.369,9.621Z"
       transform="translate(-205.125 -4.867)"
       fill="#141834"
       style="fill:#ffffff;fill-opacity:1" />
    <path
       id="Path_2515"
       data-name="Path 2515"
       d="M477.4,173.643l3.649,10.367,4.334-11.072,4.105,11.072,4.043-10.367h1.7L489.429,188.2l-4.064-11.072L481.01,188.2,475.7,173.643Z"
       transform="translate(-91.483 -31.025)"
       fill="#141834"
       style="fill:#ffffff;fill-opacity:1" />
    <rect
       id="Rectangle_209"
       data-name="Rectangle 209"
       width="1.534"
       height="13.83"
       transform="translate(405.908 142.617)"
       fill="#141834"
       style="fill:#ffffff;fill-opacity:1" />
    <path
       id="Path_2516"
       data-name="Path 2516"
       d="M537.7,175.968v12.379h-1.534V175.968h-3.359v-1.451h8.252v1.451Z"
       transform="translate(-123.086 -31.899)"
       fill="#141834"
       style="fill:#ffffff;fill-opacity:1" />
    <path
       id="Path_2517"
       data-name="Path 2517"
       d="M563.568,175.968h-5.64v4.105H563.4v1.451h-5.474V186.9h5.64v1.451h-7.174v-13.83h7.174Z"
       transform="translate(-136.138 -31.899)"
       fill="#141834"
       style="fill:#ffffff;fill-opacity:1" />
    <path
       id="Path_2518"
       data-name="Path 2518"
       d="M580.771,174.517V186.9h3.815v1.451h-5.35v-13.83Z"
       transform="translate(-148.779 -31.899)"
       fill="#141834"
       style="fill:#ffffff;fill-opacity:1" />
    <g
       id="Group_1785"
       data-name="Group 1785"
       transform="translate(436.637 142.389)"
       style="fill:#ffffff;fill-opacity:1">
      <path
         id="Path_2519"
         data-name="Path 2519"
         d="M594.648,181.16a5.62,5.62,0,1,0,5.619-5.7,5.642,5.642,0,0,0-5.619,5.7m-1.576,0a7.195,7.195,0,1,1,7.2,7.153,7.06,7.06,0,0,1-7.2-7.153"
         transform="translate(-593.072 -174.006)"
         fill="#141834"
         style="fill:#ffffff;fill-opacity:1" />
    </g>
    <path
       id="Path_2520"
       data-name="Path 2520"
       d="M632.072,187.627V173.217l10.782,11.3V173.8h1.534v14.452l-10.782-11.3v10.679Z"
       transform="translate(-178.019 -31.18)"
       fill="#141834"
       style="fill:#ffffff;fill-opacity:1" />
    <path
       id="Path_2521"
       data-name="Path 2521"
       d="M673.126,182.175l-2.322-5.536-2.364,5.536Zm.6,1.451h-5.889l-1.659,3.9h-1.7l6.365-14.494,6.2,14.494h-1.7Z"
       transform="translate(-195.953 -31.077)"
       fill="#141834"
       style="fill:#ffffff;fill-opacity:1" />
    <g
       id="Group_1786"
       data-name="Group 1786"
       transform="translate(386.095 164.819)"
       style="fill:#ffffff;fill-opacity:1">
      <path
         id="Path_2522"
         data-name="Path 2522"
         d="M480.765,229.006a2.22,2.22,0,0,0,.619,1.892,2.083,2.083,0,0,0,2.57,0,2.22,2.22,0,0,0,.619-1.892v-4.777h.865v5.01a3.014,3.014,0,0,1-.491,1.869,2.994,2.994,0,0,1-4.555,0,3.014,3.014,0,0,1-.49-1.869v-5.01h.864Z"
         transform="translate(-479.901 -224.229)"
         fill="#141834"
         style="fill:#ffffff;fill-opacity:1" />
      <path
         id="Path_2523"
         data-name="Path 2523"
         d="M500.009,232.029a1.955,1.955,0,0,0-1.518-.724,1.807,1.807,0,0,0-.012,3.609,2.067,2.067,0,0,0,1.565-.759v1a2.587,2.587,0,0,1-1.542.5,2.552,2.552,0,1,1,0-5.1,2.568,2.568,0,0,1,1.507.467Z"
         transform="translate(-488.76 -227.731)"
         fill="#141834"
         style="fill:#ffffff;fill-opacity:1" />
    </g>
    <path
       id="Path_2524"
       data-name="Path 2524"
       d="M508.42,234.895h3.364v.771h-5.046l3.5-4.077h-2.826v-.771h4.508Z"
       transform="translate(-108.658 -63.057)"
       fill="#141834"
       style="fill:#ffffff;fill-opacity:1" />
    <g
       id="Group_1787"
       data-name="Group 1787"
       transform="translate(403.851 167.645)"
       style="fill:#ffffff;fill-opacity:1">
      <path
         id="Path_2525"
         data-name="Path 2525"
         d="M523.432,232.566a1.45,1.45,0,0,0-1.425-1.261,1.473,1.473,0,0,0-1.425,1.261Zm.829,1.717a2.9,2.9,0,0,1-.6.782,2.353,2.353,0,0,1-1.612.6,2.32,2.32,0,0,1-2.394-2.534,2.35,2.35,0,0,1,2.348-2.57,2.169,2.169,0,0,1,1.834.888,3.259,3.259,0,0,1,.456,1.822h-3.773a1.552,1.552,0,0,0,1.542,1.647,1.475,1.475,0,0,0,.993-.35,1.937,1.937,0,0,0,.5-.666Z"
         transform="translate(-519.66 -230.557)"
         fill="#141834"
         style="fill:#ffffff;fill-opacity:1" />
    </g>
    <rect
       id="Rectangle_210"
       data-name="Rectangle 210"
       width="0.841"
       height="8.515"
       transform="translate(409.89 164.094)"
       fill="#141834"
       style="fill:#ffffff;fill-opacity:1" />
    <g
       id="Group_1788"
       data-name="Group 1788"
       transform="translate(412.437 164.819)"
       style="fill:#ffffff;fill-opacity:1">
      <path
         id="Path_2526"
         data-name="Path 2526"
         d="M538.885,230.674h.841v.56a1.709,1.709,0,0,1,1.39-.677,1.646,1.646,0,0,1,1.39.666,2.166,2.166,0,0,1,.28,1.3v3h-.841v-2.979a1.428,1.428,0,0,0-.222-.887.952.952,0,0,0-.794-.35,1.059,1.059,0,0,0-.853.373,2.042,2.042,0,0,0-.35,1.308v2.535h-.841Z"
         transform="translate(-538.885 -227.731)"
         fill="#141834"
         style="fill:#ffffff;fill-opacity:1" />
      <path
         id="Path_2527"
         data-name="Path 2527"
         d="M552.063,232.655h-.841v-4.847h.841Zm-.42-7.276a.6.6,0,1,1-.6.6.6.6,0,0,1,.6-.6"
         transform="translate(-545.616 -224.865)"
         fill="#141834"
         style="fill:#ffffff;fill-opacity:1" />
      <path
         id="Path_2528"
         data-name="Path 2528"
         d="M557.325,233.092a1.621,1.621,0,0,0,1.589,1.822,1.816,1.816,0,0,0,0-3.608,1.611,1.611,0,0,0-1.589,1.787m3.154-2.418h.841v4.847h-.841v-.678a2.045,2.045,0,0,1-1.659.818,2.56,2.56,0,0,1,0-5.1,2,2,0,0,1,1.659.806Z"
         transform="translate(-548.612 -227.731)"
         fill="#141834"
         style="fill:#ffffff;fill-opacity:1" />
      <path
         id="Path_2529"
         data-name="Path 2529"
         d="M578.852,227.814h.712c1.028,0,1.647-.514,1.647-1.413,0-1.238-1.157-1.355-1.717-1.355h-.642Zm.549-3.585a2.815,2.815,0,0,1,1.962.549,2.232,2.232,0,0,1-1.752,3.854h-.759v3.387h-.864v-7.79Z"
         transform="translate(-560.525 -224.229)"
         fill="#141834"
         style="fill:#ffffff;fill-opacity:1" />
      <path
         id="Path_2530"
         data-name="Path 2530"
         d="M589.368,233.092a1.621,1.621,0,0,0,1.588,1.822,1.816,1.816,0,0,0,0-3.608,1.611,1.611,0,0,0-1.588,1.787m3.153-2.418h.841v4.847h-.841v-.678a2.045,2.045,0,0,1-1.659.818,2.56,2.56,0,0,1,0-5.1,2,2,0,0,1,1.659.806Z"
         transform="translate(-566.344 -227.731)"
         fill="#141834"
         style="fill:#ffffff;fill-opacity:1" />
      <path
         id="Path_2531"
         data-name="Path 2531"
         d="M606.917,224.651l-1.565,1.576-.526-.28,1.227-1.694Zm-3.714,2.534h.841v.56a1.71,1.71,0,0,1,1.39-.677,1.645,1.645,0,0,1,1.39.666,2.163,2.163,0,0,1,.28,1.3v3h-.841v-2.979a1.423,1.423,0,0,0-.222-.887.951.951,0,0,0-.794-.35,1.06,1.06,0,0,0-.853.373,2.045,2.045,0,0,0-.35,1.308v2.535H603.2Z"
         transform="translate(-574.479 -224.243)"
         fill="#141834"
         style="fill:#ffffff;fill-opacity:1" />
      <path
         id="Path_2532"
         data-name="Path 2532"
         d="M617.292,231.8a.742.742,0,0,0-.677-.49.535.535,0,0,0-.584.548c0,.351.233.456.782.689a2.945,2.945,0,0,1,1.215.748,1.148,1.148,0,0,1,.257.782,1.542,1.542,0,0,1-1.67,1.588,1.733,1.733,0,0,1-1.693-1.238l.724-.3a1.1,1.1,0,0,0,.981.794.752.752,0,0,0,.794-.771c0-.455-.327-.607-.782-.805a3.169,3.169,0,0,1-1.18-.713,1.05,1.05,0,0,1-.222-.712,1.3,1.3,0,0,1,1.413-1.355,1.4,1.4,0,0,1,1.331.876Z"
         transform="translate(-580.964 -227.731)"
         fill="#141834"
         style="fill:#ffffff;fill-opacity:1" />
    </g>
    <path
       id="Path_2533"
       data-name="Path 2533"
       d="M625.484,229.419v4.076h-.841v-4.076h-.514v-.771h.514V226.9h.841v1.752h.841v.771Z"
       transform="translate(-173.623 -60.886)"
       fill="#141834"
       style="fill:#ffffff;fill-opacity:1" />
    <path
       id="Path_2534"
       data-name="Path 2534"
       d="M631.261,230.356l1.437,3.294,1.518-3.667,1.506,3.667,1.448-3.294h.935l-2.406,5.186-1.5-3.621-1.495,3.621-2.383-5.186Z"
       transform="translate(-177.053 -62.595)"
       fill="#141834"
       style="fill:#ffffff;fill-opacity:1" />
    <g
       id="Group_1789"
       data-name="Group 1789"
       transform="translate(461.755 167.645)"
       style="fill:#ffffff;fill-opacity:1">
      <path
         id="Path_2535"
         data-name="Path 2535"
         d="M650.181,233.115a1.708,1.708,0,1,0,1.705-1.81,1.68,1.68,0,0,0-1.705,1.81m-.864,0a2.57,2.57,0,1,1,2.569,2.546,2.489,2.489,0,0,1-2.569-2.546"
         transform="translate(-649.317 -230.557)"
         fill="#141834"
         style="fill:#ffffff;fill-opacity:1" />
    </g>
    <path
       id="Path_2536"
       data-name="Path 2536"
       d="M663.329,230.356l1.437,3.294,1.518-3.667,1.506,3.667,1.448-3.294h.935l-2.406,5.186-1.5-3.621-1.495,3.621-2.383-5.186Z"
       transform="translate(-194.799 -62.595)"
       fill="#141834"
       style="fill:#ffffff;fill-opacity:1" />
    <g
       id="Group_1790"
       data-name="Group 1790"
       transform="translate(476.077 167.645)"
       style="fill:#ffffff;fill-opacity:1">
      <path
         id="Path_2537"
         data-name="Path 2537"
         d="M682.249,233.092a1.621,1.621,0,0,0,1.589,1.822,1.816,1.816,0,0,0,0-3.608,1.611,1.611,0,0,0-1.589,1.787m3.154-2.418h.841v4.847H685.4v-.678a2.045,2.045,0,0,1-1.659.818,2.56,2.56,0,0,1,0-5.1,2.005,2.005,0,0,1,1.659.806Z"
         transform="translate(-681.385 -230.557)"
         fill="#141834"
         style="fill:#ffffff;fill-opacity:1" />
    </g>
  </g>
  <rect
     style="fill:#ffffff;fill-opacity:1;fill-rule:evenodd;stroke-width:41.4425;stroke-linecap:round;stroke-linejoin:round;stroke-dashoffset:2.06929;paint-order:markers stroke fill"
     id="rect984"
     width="1.0926014"
     height="60.249329"
     x="186.47115"
     y="0" />
  <text
     xml:space="preserve"
     style="font-size:40px;line-height:1.25;font-family:Sacramento;-inkscape-font-specification:Sacramento"
     x="220.60204"
     y="10.405756"
     id="text1040"><tspan
       sodipodi:role="line"
       id="tspan1038"
       x="220.60204"
       y="10.405756"
       style="fill:#ffffff;fill-opacity:1">Turniej o puchar Witelona</tspan></text>
</svg>
